<?xml version="1.0" encoding="utf-8"?>
<!-- Generator: Adobe Illustrator 19.2.1, SVG Export Plug-In . SVG Version: 6.00 Build 0)  -->
<svg version="1.1" id="Слой_3" xmlns="http://www.w3.org/2000/svg" xmlns:xlink="http://www.w3.org/1999/xlink" x="0px" y="0px"
	 viewBox="0 0 297 100" style="enable-background:new 0 0 297 100;" xml:space="preserve">
<style type="text/css">
	.st0{fill:#262626;stroke:#252626;stroke-width:0.25;stroke-linecap:round;stroke-linejoin:round;stroke-miterlimit:10;}
	.st1{fill:#262626;}
</style>
<path class="st0" d="M70.8,35c-1.1-1-1.7-2.6-1.7-4.7c0-0.5,0-1.1,0-2s0-1.5,0-1.9c0.1-2.1,0.7-3.6,1.8-4.7c1.1-1.1,2.7-1.6,4.6-1.6
	c1.9,0,3.4,0.5,4.6,1.6s1.7,2.7,1.8,4.7c0,0.9,0,1.5,0,1.9c0,0.4,0,1,0,2c-0.1,2.1-0.6,3.7-1.7,4.7c-1.1,1.1-2.6,1.6-4.6,1.6
	C73.4,36.6,71.9,36.1,70.8,35z M78.3,33.5c0.7-0.7,1.1-1.9,1.2-3.4c0-0.9,0-1.5,0-1.8c0-0.3,0-1,0-1.8c-0.1-1.5-0.5-2.6-1.2-3.4
	c-0.7-0.7-1.7-1.1-2.9-1.1c-1.2,0-2.2,0.4-2.9,1.1c-0.7,0.7-1.1,1.9-1.2,3.4c0,0.4,0,1.1,0,1.8c0,0.8,0,1.4,0,1.8
	c0.1,1.5,0.5,2.6,1.2,3.4c0.7,0.7,1.7,1.1,2.9,1.1S77.6,34.3,78.3,33.5z"/>
<path class="st0" d="M83.9,39.4c-0.1-0.1-0.2-0.2-0.2-0.4v-4.2c0-0.2,0-0.3,0.2-0.4c0.1-0.1,0.2-0.1,0.4-0.1h0.5
	c1.5,0,2.2-2.9,2.2-8.6v-4.9c0-0.2,0-0.3,0.1-0.4c0.1-0.1,0.2-0.1,0.4-0.1h9c0.2,0,0.3,0.1,0.4,0.1c0.1,0.1,0.2,0.2,0.2,0.4v13.5
	h1.1c0.2,0,0.3,0,0.4,0.1c0.1,0.1,0.2,0.2,0.2,0.4V39c0,0.2,0,0.3-0.1,0.4c-0.1,0.1-0.2,0.1-0.4,0.1H97c-0.2,0-0.3,0-0.4-0.1
	c-0.1-0.1-0.1-0.2-0.1-0.4v-2.7H86V39c0,0.2-0.1,0.3-0.2,0.4s-0.2,0.1-0.4,0.1h-1.2C84.1,39.6,84,39.5,83.9,39.4z M94.8,34.3v-12
	h-5.6V26c0,2.2-0.1,3.9-0.4,5.2s-0.6,2.3-1.1,3H94.8z"/>
<path class="st0" d="M101.7,36.2c-0.1-0.1-0.1-0.2-0.1-0.4v-15c0-0.2,0-0.3,0.1-0.4c0.1-0.1,0.2-0.1,0.4-0.1h9.5
	c0.2,0,0.3,0.1,0.4,0.1c0.1,0.1,0.1,0.2,0.1,0.4v0.9c0,0.2,0,0.3-0.1,0.4c-0.1,0.1-0.2,0.1-0.4,0.1h-7.8v5h7.3c0.2,0,0.3,0,0.4,0.1
	c0.1,0.1,0.1,0.2,0.1,0.4v0.9c0,0.2,0,0.3-0.1,0.4c-0.1,0.1-0.2,0.1-0.4,0.1h-7.3v5.2h8c0.2,0,0.3,0,0.4,0.1
	c0.1,0.1,0.1,0.2,0.1,0.4v0.9c0,0.2-0.1,0.3-0.2,0.4c-0.1,0.1-0.2,0.1-0.4,0.1h-9.7C101.9,36.4,101.8,36.3,101.7,36.2z"/>
<path class="st0" d="M116.5,34.9c-1.1-1.1-1.6-2.6-1.7-4.6c0-0.4,0-1.1,0-2c0-1,0-1.6,0-2.1c0.1-1.9,0.7-3.5,1.7-4.6
	c1.1-1.1,2.6-1.7,4.7-1.7c1.4,0,2.5,0.2,3.5,0.7c1,0.5,1.7,1.1,2.2,1.9c0.5,0.8,0.8,1.6,0.8,2.5v0c0,0.1,0,0.2-0.1,0.3
	c-0.1,0.1-0.2,0.1-0.3,0.1h-1.3c-0.3,0-0.5-0.2-0.6-0.5c-0.3-1.1-0.7-2-1.4-2.4c-0.7-0.5-1.6-0.7-2.7-0.7c-2.6,0-4,1.5-4.1,4.4
	c0,0.4,0,1.1,0,1.9c0,0.9,0,1.5,0,2c0.1,2.9,1.5,4.4,4.1,4.4c1.1,0,2-0.2,2.7-0.7c0.7-0.5,1.1-1.3,1.4-2.4c0-0.2,0.1-0.3,0.2-0.4
	c0.1-0.1,0.2-0.1,0.4-0.1h1.3c0.1,0,0.3,0,0.4,0.1c0.1,0.1,0.1,0.2,0.1,0.3c0,0.9-0.3,1.7-0.8,2.5c-0.5,0.8-1.2,1.4-2.2,1.9
	c-1,0.5-2.1,0.7-3.5,0.7C119.1,36.6,117.5,36,116.5,34.9z"/>
<path class="st0" d="M131.8,34.9c-1.1-1.1-1.6-2.6-1.7-4.6c0-0.4,0-1.1,0-2c0-1,0-1.6,0-2.1c0.1-1.9,0.7-3.5,1.7-4.6
	c1.1-1.1,2.6-1.7,4.7-1.7c1.4,0,2.5,0.2,3.5,0.7c1,0.5,1.7,1.1,2.2,1.9c0.5,0.8,0.8,1.6,0.8,2.5v0c0,0.1,0,0.2-0.1,0.3
	c-0.1,0.1-0.2,0.1-0.3,0.1h-1.3c-0.3,0-0.5-0.2-0.6-0.5c-0.3-1.1-0.7-2-1.4-2.4c-0.7-0.5-1.6-0.7-2.7-0.7c-2.6,0-4,1.5-4.1,4.4
	c0,0.4,0,1.1,0,1.9c0,0.9,0,1.5,0,2c0.1,2.9,1.5,4.4,4.1,4.4c1.1,0,2-0.2,2.7-0.7c0.7-0.5,1.1-1.3,1.4-2.4c0-0.2,0.1-0.3,0.2-0.4
	c0.1-0.1,0.2-0.1,0.4-0.1h1.3c0.1,0,0.3,0,0.4,0.1c0.1,0.1,0.1,0.2,0.1,0.3c0,0.9-0.3,1.7-0.8,2.5c-0.5,0.8-1.2,1.4-2.2,1.9
	c-1,0.5-2.1,0.7-3.5,0.7C134.5,36.6,132.9,36,131.8,34.9z"/>
<path class="st0" d="M157.9,35.8c0,0.2,0,0.3-0.1,0.4c-0.1,0.1-0.2,0.2-0.4,0.2h-1.3c-0.2,0-0.3,0-0.4-0.1c-0.1-0.1-0.2-0.1-0.2-0.3
	l-4.4-6.8h-2.7v6.6c0,0.2-0.1,0.3-0.2,0.4c-0.1,0.1-0.2,0.1-0.4,0.1h-1.2c-0.2,0-0.3,0-0.4-0.1s-0.1-0.2-0.1-0.4v-15
	c0-0.2,0-0.3,0.1-0.4c0.1-0.1,0.2-0.1,0.4-0.1h1.2c0.2,0,0.3,0.1,0.4,0.1c0.1,0.1,0.1,0.2,0.1,0.4v6.3l2.6,0l4.1-6.6
	c0.2-0.2,0.4-0.4,0.8-0.4h1.2c0.3,0,0.5,0.2,0.5,0.5c0,0.1,0,0.2-0.1,0.3l-4.4,7l4.9,7.5C157.9,35.6,157.9,35.7,157.9,35.8z"/>
<path class="st0" d="M161,36.2c-0.1-0.1-0.1-0.2-0.1-0.4v-15c0-0.2,0-0.3,0.1-0.4c0.1-0.1,0.2-0.1,0.4-0.1h1.2
	c0.2,0,0.3,0.1,0.4,0.2c0.1,0.1,0.1,0.2,0.1,0.4v11.9l8.6-12.1c0.1-0.2,0.3-0.3,0.6-0.3h1.1c0.2,0,0.3,0.1,0.4,0.1
	c0.1,0.1,0.1,0.2,0.1,0.4v15c0,0.2,0,0.3-0.1,0.4c-0.1,0.1-0.2,0.1-0.4,0.1h-1.2c-0.2,0-0.3,0-0.4-0.1c-0.1-0.1-0.2-0.2-0.2-0.4V24
	l-8.6,12c-0.1,0.2-0.3,0.3-0.6,0.3h-1.2C161.2,36.4,161.1,36.3,161,36.2z"/>
<path class="st0" d="M178.1,36.2c-0.1-0.1-0.1-0.2-0.1-0.4v-15c0-0.2,0-0.3,0.1-0.4c0.1-0.1,0.2-0.1,0.4-0.1h1.2
	c0.2,0,0.3,0.1,0.4,0.2c0.1,0.1,0.1,0.2,0.1,0.4v11.9l8.6-12.1c0.1-0.2,0.3-0.3,0.6-0.3h1.1c0.2,0,0.3,0.1,0.4,0.1
	c0.1,0.1,0.1,0.2,0.1,0.4v15c0,0.2,0,0.3-0.1,0.4s-0.2,0.1-0.4,0.1h-1.2c-0.2,0-0.3,0-0.4-0.1s-0.2-0.2-0.2-0.4V24l-8.6,12
	c-0.1,0.2-0.3,0.3-0.6,0.3h-1.2C178.3,36.4,178.2,36.3,178.1,36.2z M181.6,18.5c-0.6-0.5-0.8-1.2-0.8-2c0-0.1,0-0.2,0.1-0.3
	c0.1-0.1,0.2-0.1,0.3-0.1h0.8c0.1,0,0.2,0,0.3,0.1c0.1,0.1,0.1,0.2,0.1,0.3c0,1,0.6,1.4,1.9,1.4c1.3,0,1.9-0.5,1.9-1.4
	c0-0.1,0-0.2,0.1-0.3c0.1-0.1,0.2-0.1,0.3-0.1h0.8c0.1,0,0.2,0,0.3,0.1c0.1,0.1,0.1,0.2,0.1,0.3c0,0.8-0.3,1.5-0.8,2
	c-0.6,0.5-1.5,0.8-2.7,0.8C183.1,19.3,182.2,19.1,181.6,18.5z"/>
<path class="st0" d="M68.9,60c-0.1-0.1-0.1-0.2-0.1-0.3c0-0.1,0-0.2,0.1-0.3l5.3-7.4l-5-7.2c0-0.1-0.1-0.2-0.1-0.3
	c0-0.1,0-0.2,0.1-0.3c0.1-0.1,0.2-0.1,0.3-0.1h1.4c0.2,0,0.4,0.1,0.6,0.4l4,5.8l4-5.8c0.2-0.3,0.4-0.4,0.6-0.4h1.3
	c0.1,0,0.2,0,0.3,0.1c0.1,0.1,0.1,0.2,0.1,0.3c0,0.1,0,0.2-0.1,0.3L76.9,52l5.2,7.4c0.1,0.1,0.1,0.2,0.1,0.3c0,0.1,0,0.2-0.1,0.3
	c-0.1,0.1-0.2,0.1-0.3,0.1h-1.4c-0.2,0-0.4-0.1-0.6-0.4l-4.3-6l-4.3,6c-0.2,0.3-0.4,0.4-0.6,0.4h-1.4C69.1,60.2,69,60.1,68.9,60z"/>
<path class="st0" d="M97.2,44.2c0.1,0.1,0.1,0.2,0.1,0.3c0,0.1,0,0.2-0.1,0.3l-4.7,10.6c-0.5,1.2-1,2.1-1.4,2.8
	c-0.4,0.6-0.9,1.1-1.5,1.4c-0.6,0.3-1.3,0.5-2.2,0.5h-0.9c-0.2,0-0.3,0-0.4-0.1S86,59.8,86,59.7v-1c0-0.2,0-0.3,0.1-0.4
	s0.2-0.2,0.4-0.2h0.8c0.6,0,1.1-0.2,1.5-0.6s0.8-1,1.3-1.9l-6-10.9c0-0.1-0.1-0.2-0.1-0.3c0-0.1,0-0.2,0.1-0.3
	c0.1-0.1,0.2-0.1,0.3-0.1h1.3c0.2,0,0.4,0.1,0.6,0.4l4.8,8.7l3.8-8.7c0-0.1,0.1-0.2,0.2-0.3c0.1-0.1,0.2-0.1,0.3-0.1h1.2
	C97,44.1,97.1,44.1,97.2,44.2z"/>
<path class="st0" d="M97,64.2c-0.1-0.1-0.1-0.2-0.1-0.4v-4.2c0-0.2,0-0.3,0.1-0.4c0.1-0.1,0.2-0.1,0.4-0.1h0.5
	c1.5,0,2.2-2.9,2.2-8.6v-4.9c0-0.2,0-0.3,0.1-0.4c0.1-0.1,0.2-0.1,0.4-0.1h9c0.2,0,0.3,0.1,0.4,0.1c0.1,0.1,0.1,0.2,0.1,0.4v13.5
	h1.1c0.2,0,0.3,0,0.4,0.1c0.1,0.1,0.2,0.2,0.2,0.4v4.2c0,0.2,0,0.3-0.1,0.4c-0.1,0.1-0.2,0.1-0.4,0.1h-1.2c-0.2,0-0.3,0-0.4-0.1
	c-0.1-0.1-0.1-0.2-0.1-0.4v-2.7H99.1v2.7c0,0.2-0.1,0.3-0.1,0.4c-0.1,0.1-0.2,0.1-0.4,0.1h-1.2C97.2,64.4,97.1,64.3,97,64.2z
	 M107.9,59.1v-12h-5.6v3.7c0,2.2-0.1,3.9-0.4,5.2s-0.6,2.3-1.1,3H107.9z"/>
<path class="st0" d="M115.7,58.8c-1.1-1-1.7-2.6-1.7-4.7c0-0.5,0-1.1,0-2c0-0.8,0-1.5,0-1.9c0.1-2.1,0.7-3.6,1.8-4.7
	s2.7-1.6,4.6-1.6c1.9,0,3.4,0.5,4.6,1.6s1.7,2.7,1.8,4.7c0,0.9,0,1.5,0,1.9c0,0.4,0,1,0,2c-0.1,2.1-0.6,3.7-1.7,4.7
	c-1.1,1.1-2.6,1.6-4.6,1.6C118.4,60.4,116.8,59.9,115.7,58.8z M123.3,57.4c0.7-0.7,1.1-1.9,1.2-3.4c0-0.9,0-1.5,0-1.8
	c0-0.3,0-1,0-1.8c-0.1-1.5-0.5-2.6-1.2-3.4c-0.7-0.7-1.7-1.1-2.9-1.1c-1.2,0-2.2,0.4-2.9,1.1c-0.7,0.7-1.1,1.9-1.2,3.4
	c0,0.4,0,1.1,0,1.8c0,0.8,0,1.4,0,1.8c0.1,1.5,0.5,2.6,1.2,3.4c0.7,0.7,1.7,1.1,2.9,1.1S122.6,58.1,123.3,57.4z"/>
<path class="st0" d="M149.1,59.6c0,0.2,0,0.3-0.1,0.4c-0.1,0.1-0.2,0.2-0.4,0.2h-1.3c-0.3,0-0.5-0.1-0.6-0.3l-4.4-6.8h-2.6v6.6
	c0,0.2,0,0.3-0.1,0.4c-0.1,0.1-0.2,0.1-0.4,0.1H138c-0.2,0-0.3,0-0.4-0.1c-0.1-0.1-0.1-0.2-0.1-0.4v-6.6h-2.6l-4.4,6.8
	c-0.1,0.1-0.2,0.2-0.2,0.3s-0.2,0.1-0.4,0.1h-1.3c-0.2,0-0.3-0.1-0.4-0.2s-0.1-0.2-0.1-0.4c0-0.1,0-0.2,0.1-0.3l4.9-7.5l-4.4-7
	c-0.1-0.1-0.1-0.2-0.1-0.3c0-0.3,0.2-0.5,0.5-0.5h1.2c0.4,0,0.6,0.1,0.8,0.4L135,51l2.5,0v-6.4c0-0.2,0-0.3,0.1-0.4
	c0.1-0.1,0.2-0.1,0.4-0.1h1.1c0.2,0,0.3,0.1,0.4,0.1c0.1,0.1,0.1,0.2,0.1,0.4V51l2.4,0l4.1-6.6c0.2-0.2,0.4-0.4,0.8-0.4h1.3
	c0.2,0,0.3,0,0.3,0.1c0.1,0.1,0.1,0.2,0.1,0.3c0,0,0,0.1-0.1,0.3l-4.4,7l4.9,7.5C149,59.4,149.1,59.5,149.1,59.6z"/>
<path class="st0" d="M152.1,60c-0.1-0.1-0.1-0.2-0.1-0.4v-15c0-0.2,0-0.3,0.1-0.4c0.1-0.1,0.2-0.1,0.4-0.1h9.5
	c0.2,0,0.3,0.1,0.4,0.1c0.1,0.1,0.1,0.2,0.1,0.4v0.9c0,0.2,0,0.3-0.1,0.4S162.2,46,162,46h-7.8v5h7.3c0.2,0,0.3,0,0.4,0.1
	c0.1,0.1,0.1,0.2,0.1,0.4v0.9c0,0.2,0,0.3-0.1,0.4c-0.1,0.1-0.2,0.2-0.4,0.2h-7.3v5.2h8c0.2,0,0.3,0,0.4,0.1
	c0.1,0.1,0.1,0.2,0.1,0.4v0.9c0,0.2-0.1,0.3-0.2,0.4s-0.2,0.1-0.4,0.1h-9.7C152.3,60.2,152.2,60.1,152.1,60z"/>
<path class="st0" d="M166.9,58.8c-1.1-1.1-1.6-2.6-1.7-4.6c0-0.4,0-1.1,0-2c0-1,0-1.6,0-2.1c0.1-1.9,0.7-3.5,1.7-4.6
	c1.1-1.1,2.6-1.7,4.7-1.7c1.4,0,2.5,0.2,3.5,0.7c1,0.5,1.7,1.1,2.2,1.9c0.5,0.8,0.8,1.6,0.8,2.5v0c0,0.1,0,0.2-0.1,0.3
	c-0.1,0.1-0.2,0.1-0.3,0.1h-1.3c-0.3,0-0.5-0.2-0.6-0.5c-0.3-1.1-0.7-2-1.4-2.4s-1.6-0.7-2.7-0.7c-2.6,0-4,1.5-4.1,4.4
	c0,0.4,0,1.1,0,1.9c0,0.9,0,1.5,0,2c0.1,2.9,1.5,4.4,4.1,4.4c1.1,0,2-0.2,2.7-0.7c0.7-0.5,1.1-1.3,1.4-2.4c0-0.2,0.1-0.3,0.2-0.4
	c0.1-0.1,0.2-0.1,0.4-0.1h1.3c0.1,0,0.3,0,0.4,0.1c0.1,0.1,0.1,0.2,0.1,0.3c0,0.9-0.3,1.7-0.8,2.5c-0.5,0.8-1.2,1.4-2.2,1.9
	c-1,0.5-2.1,0.7-3.5,0.7C169.5,60.4,167.9,59.9,166.9,58.8z"/>
<path class="st0" d="M184.7,60c-0.1-0.1-0.1-0.2-0.1-0.4V46.1h-4.4c-0.2,0-0.3,0-0.4-0.1c-0.1-0.1-0.1-0.2-0.1-0.4v-1
	c0-0.2,0-0.3,0.1-0.4c0.1-0.1,0.2-0.2,0.4-0.2h11.1c0.2,0,0.3,0.1,0.4,0.1c0.1,0.1,0.2,0.2,0.2,0.4v1c0,0.2-0.1,0.3-0.2,0.4
	c-0.1,0.1-0.2,0.1-0.4,0.1h-4.4v13.5c0,0.2-0.1,0.3-0.2,0.4s-0.2,0.1-0.4,0.1h-1.2C185,60.2,184.8,60.1,184.7,60z"/>
<path class="st0" d="M194.5,60c-0.1-0.1-0.1-0.2-0.1-0.4v-15c0-0.2,0-0.3,0.1-0.4c0.1-0.1,0.2-0.1,0.4-0.1h6.3
	c1.6,0,2.9,0.4,3.7,1.2c0.8,0.8,1.2,1.8,1.2,3.1c0,0.9-0.2,1.6-0.6,2.1c-0.4,0.6-0.9,1-1.4,1.2c0.6,0.3,1.2,0.8,1.6,1.5
	c0.4,0.7,0.7,1.5,0.7,2.3c0,0.9-0.2,1.6-0.6,2.3c-0.4,0.7-1,1.3-1.7,1.7c-0.8,0.4-1.7,0.6-2.8,0.6h-6.5
	C194.7,60.2,194.6,60.1,194.5,60z M200.9,50.9c1,0,1.7-0.2,2.2-0.7c0.5-0.4,0.8-1.1,0.8-1.9c0-0.8-0.3-1.4-0.8-1.8
	c-0.5-0.4-1.3-0.6-2.2-0.6h-4.2v4.9H200.9z M201.1,58.3c1,0,1.7-0.3,2.3-0.8c0.5-0.5,0.8-1.2,0.8-2c0-0.8-0.3-1.5-0.8-2
	c-0.5-0.5-1.3-0.8-2.3-0.8h-4.5v5.6H201.1z"/>
<path class="st0" d="M209.9,60c-0.1-0.1-0.1-0.2-0.1-0.4v-15c0-0.2,0-0.3,0.1-0.4c0.1-0.1,0.2-0.1,0.4-0.1h9.5
	c0.2,0,0.3,0.1,0.4,0.1c0.1,0.1,0.1,0.2,0.1,0.4v0.9c0,0.2,0,0.3-0.1,0.4s-0.2,0.1-0.4,0.1h-7.8v5h7.3c0.2,0,0.3,0,0.4,0.1
	c0.1,0.1,0.1,0.2,0.1,0.4v0.9c0,0.2,0,0.3-0.1,0.4c-0.1,0.1-0.2,0.2-0.4,0.2h-7.3v5.2h8c0.2,0,0.3,0,0.4,0.1
	c0.1,0.1,0.1,0.2,0.1,0.4v0.9c0,0.2,0,0.3-0.1,0.4c-0.1,0.1-0.2,0.1-0.4,0.1h-9.7C210.1,60.2,210,60.1,209.9,60z"/>
<path class="st0" d="M223.8,60c-0.1-0.1-0.1-0.2-0.1-0.4v-15c0-0.2,0-0.3,0.1-0.4c0.1-0.1,0.2-0.1,0.4-0.1h1.2
	c0.2,0,0.3,0.1,0.4,0.1c0.1,0.1,0.1,0.2,0.1,0.4V51h7.9v-6.3c0-0.2,0-0.3,0.1-0.4c0.1-0.1,0.2-0.1,0.4-0.1h1.2
	c0.2,0,0.3,0.1,0.4,0.1c0.1,0.1,0.1,0.2,0.1,0.4v15c0,0.2-0.1,0.3-0.2,0.4s-0.2,0.1-0.4,0.1h-1.2c-0.2,0-0.3,0-0.4-0.1
	s-0.1-0.2-0.1-0.4v-6.6h-7.9v6.6c0,0.2-0.1,0.3-0.2,0.4s-0.2,0.1-0.4,0.1h-1.2C224.1,60.2,223.9,60.1,223.8,60z"/>
<path class="st0" d="M240.2,60c-0.1-0.1-0.1-0.2-0.1-0.4v-15c0-0.2,0-0.3,0.1-0.4c0.1-0.1,0.2-0.1,0.4-0.1h1.2
	c0.2,0,0.3,0.1,0.4,0.1c0.1,0.1,0.1,0.2,0.1,0.4V51h7.9v-6.3c0-0.2,0-0.3,0.1-0.4c0.1-0.1,0.2-0.1,0.4-0.1h1.2
	c0.2,0,0.3,0.1,0.4,0.1c0.1,0.1,0.1,0.2,0.1,0.4v15c0,0.2-0.1,0.3-0.2,0.4s-0.2,0.1-0.4,0.1h-1.2c-0.2,0-0.3,0-0.4-0.1
	s-0.1-0.2-0.1-0.4v-6.6h-7.9v6.6c0,0.2-0.1,0.3-0.2,0.4s-0.2,0.1-0.4,0.1h-1.2C240.5,60.2,240.3,60.1,240.2,60z"/>
<path class="st0" d="M256.7,60c-0.1-0.1-0.1-0.2-0.1-0.4v-15c0-0.2,0-0.3,0.1-0.4c0.1-0.1,0.2-0.1,0.4-0.1h1.2
	c0.2,0,0.3,0.1,0.4,0.1c0.1,0.1,0.2,0.2,0.2,0.4v5.6h2.9c1.7,0,3,0.4,3.9,1.3c0.9,0.8,1.4,2.1,1.4,3.7c0,0.9-0.2,1.7-0.6,2.5
	s-1,1.4-1.8,1.9c-0.8,0.5-1.8,0.7-2.9,0.7H257C256.9,60.2,256.8,60.1,256.7,60z M261.5,58.3c1,0,1.7-0.3,2.3-0.9
	c0.6-0.6,0.8-1.3,0.8-2.3c0-2-1-3-3.1-3h-2.8v6.1H261.5z M269.3,60c-0.1-0.1-0.1-0.2-0.1-0.4v-15c0-0.2,0-0.3,0.1-0.4
	c0.1-0.1,0.2-0.1,0.4-0.1h1.2c0.2,0,0.3,0.1,0.4,0.1c0.1,0.1,0.1,0.2,0.1,0.4v15c0,0.2,0,0.3-0.1,0.4s-0.2,0.1-0.4,0.1h-1.2
	C269.5,60.2,269.4,60.1,269.3,60z"/>
<path class="st0" d="M275.6,60c-0.1-0.1-0.1-0.2-0.1-0.4v-15c0-0.2,0-0.3,0.1-0.4c0.1-0.1,0.2-0.1,0.4-0.1h1.2
	c0.2,0,0.3,0.1,0.4,0.2c0.1,0.1,0.1,0.2,0.1,0.4v11.9l8.6-12.1c0.1-0.2,0.3-0.3,0.6-0.3h1.1c0.2,0,0.3,0.1,0.4,0.1
	c0.1,0.1,0.2,0.2,0.2,0.4v15c0,0.2-0.1,0.3-0.2,0.4s-0.2,0.1-0.4,0.1h-1.2c-0.2,0-0.3,0-0.4-0.1s-0.2-0.2-0.2-0.4V47.9l-8.6,12
	c-0.1,0.2-0.3,0.3-0.6,0.3H276C275.8,60.2,275.7,60.1,275.6,60z M279.2,42.4c-0.6-0.5-0.8-1.2-0.8-2c0-0.1,0-0.2,0.1-0.3
	c0.1-0.1,0.2-0.1,0.3-0.1h0.8c0.1,0,0.2,0,0.3,0.1c0.1,0.1,0.1,0.2,0.1,0.3c0,1,0.6,1.4,1.9,1.4s1.9-0.5,1.9-1.4
	c0-0.1,0-0.2,0.1-0.3c0.1-0.1,0.2-0.1,0.3-0.1h0.8c0.1,0,0.2,0,0.3,0.1c0.1,0.1,0.1,0.2,0.1,0.3c0,0.8-0.3,1.5-0.8,2
	c-0.6,0.5-1.5,0.8-2.7,0.8S279.7,42.9,279.2,42.4z"/>
<path class="st0" d="M69.2,83.8c-0.1-0.1-0.1-0.2-0.1-0.4v-15c0-0.2,0-0.3,0.1-0.4s0.2-0.1,0.4-0.1h1.2c0.2,0,0.4,0.1,0.6,0.4
	l4.9,9.3l4.9-9.3c0-0.1,0.1-0.2,0.2-0.3c0.1-0.1,0.2-0.1,0.4-0.1h1.1c0.2,0,0.3,0,0.4,0.1s0.1,0.2,0.1,0.4v15c0,0.2-0.1,0.3-0.2,0.4
	c-0.1,0.1-0.2,0.1-0.4,0.1h-1.1c-0.2,0-0.3,0-0.4-0.1c-0.1-0.1-0.1-0.2-0.1-0.4V72.1l-3.8,7.5c-0.2,0.3-0.4,0.5-0.7,0.5h-0.7
	c-0.3,0-0.6-0.2-0.7-0.5l-3.9-7.5v11.3c0,0.2,0,0.3-0.1,0.4c-0.1,0.1-0.2,0.1-0.4,0.1h-1.1C69.4,83.9,69.3,83.9,69.2,83.8z"/>
<path class="st0" d="M98.7,68c0.1,0.1,0.1,0.2,0.1,0.3c0,0.1,0,0.2-0.1,0.3l-4.7,10.6c-0.5,1.2-1,2.1-1.4,2.8
	c-0.4,0.6-0.9,1.1-1.5,1.4c-0.6,0.3-1.3,0.5-2.2,0.5H88c-0.2,0-0.3,0-0.4-0.1s-0.1-0.2-0.1-0.4v-1c0-0.2,0-0.3,0.1-0.4
	s0.2-0.2,0.4-0.2h0.8c0.6,0,1.1-0.2,1.5-0.6s0.8-1,1.3-1.9l-6-10.9c0-0.1-0.1-0.2-0.1-0.3c0-0.1,0-0.2,0.1-0.3
	c0.1-0.1,0.2-0.1,0.3-0.1h1.3c0.2,0,0.4,0.1,0.6,0.4l4.8,8.7l3.8-8.7c0-0.1,0.1-0.2,0.2-0.3c0.1-0.1,0.2-0.1,0.3-0.1h1.2
	C98.5,67.8,98.6,67.9,98.7,68z"/>
<path class="st0" d="M102.6,83.6c-0.9-0.4-1.5-0.9-2-1.5c-0.5-0.6-0.8-1.3-0.8-2.1v0c0-0.1,0-0.2,0.1-0.3c0.1-0.1,0.2-0.1,0.3-0.1
	h1.1c0.2,0,0.3,0,0.4,0.1c0.1,0.1,0.2,0.2,0.2,0.4c0.2,0.6,0.6,1.2,1.2,1.5c0.6,0.4,1.4,0.6,2.4,0.6c1.1,0,2-0.3,2.8-0.8
	c0.7-0.5,1.1-1.2,1.1-2.1c0-0.9-0.3-1.6-1-2.1c-0.7-0.5-1.5-0.7-2.7-0.7h-1.6c-0.2,0-0.3,0-0.4-0.1s-0.1-0.2-0.1-0.4v-0.8
	c0-0.2,0-0.3,0.1-0.4s0.2-0.1,0.4-0.1h1.5c1,0,1.8-0.2,2.3-0.6c0.6-0.4,0.9-1.1,0.9-2c0-0.8-0.3-1.4-0.9-1.8
	c-0.6-0.5-1.4-0.7-2.3-0.7c-1,0-1.8,0.2-2.4,0.5s-1,0.9-1.1,1.6c-0.1,0.3-0.3,0.5-0.6,0.5h-1.2c-0.1,0-0.3,0-0.4-0.1
	c-0.1-0.1-0.1-0.2-0.1-0.3c0.1-1.2,0.7-2.2,1.7-3c1-0.7,2.4-1.1,4.2-1.1c1.2,0,2.2,0.2,3,0.6c0.8,0.4,1.5,0.9,1.9,1.6
	c0.4,0.7,0.6,1.4,0.6,2.1c0,1.6-0.6,2.8-1.8,3.5c0.8,0.4,1.4,0.9,1.8,1.6c0.4,0.7,0.6,1.5,0.6,2.3c0,0.9-0.3,1.8-0.8,2.5
	c-0.5,0.7-1.2,1.3-2.2,1.7s-2,0.6-3.3,0.6C104.5,84.2,103.4,84,102.6,83.6z"/>
<path class="st0" d="M114.3,83.8c-0.1-0.1-0.1-0.2-0.1-0.4v-15c0-0.2,0-0.3,0.1-0.4s0.2-0.1,0.4-0.1h9.5c0.2,0,0.3,0,0.4,0.1
	c0.1,0.1,0.1,0.2,0.1,0.4v0.9c0,0.2,0,0.3-0.1,0.4c-0.1,0.1-0.2,0.2-0.4,0.2h-7.8v5h7.3c0.2,0,0.3,0.1,0.4,0.1
	c0.1,0.1,0.1,0.2,0.1,0.4v0.9c0,0.2,0,0.3-0.1,0.4s-0.2,0.1-0.4,0.1h-7.3V82h8c0.2,0,0.3,0,0.4,0.1c0.1,0.1,0.1,0.2,0.1,0.4v0.9
	c0,0.2-0.1,0.3-0.1,0.4s-0.2,0.1-0.4,0.1h-9.7C114.5,83.9,114.4,83.9,114.3,83.8z"/>
<path class="st0" d="M128.2,83.8c-0.1-0.1-0.1-0.2-0.1-0.4v-15c0-0.2,0-0.3,0.1-0.4s0.2-0.1,0.4-0.1h1.2c0.2,0,0.3,0.1,0.4,0.2
	c0.1,0.1,0.1,0.2,0.1,0.4v11.9l8.6-12.1c0.1-0.2,0.3-0.3,0.6-0.3h1.1c0.2,0,0.3,0,0.4,0.1c0.1,0.1,0.1,0.2,0.1,0.4v15
	c0,0.2,0,0.3-0.1,0.4c-0.1,0.1-0.2,0.1-0.4,0.1h-1.2c-0.2,0-0.3,0-0.4-0.1c-0.1-0.1-0.2-0.2-0.2-0.4V71.6l-8.6,12
	c-0.1,0.2-0.3,0.3-0.6,0.3h-1.2C128.4,83.9,128.3,83.9,128.2,83.8z M131.8,66.1c-0.6-0.5-0.8-1.2-0.8-2c0-0.1,0-0.2,0.1-0.3
	c0.1-0.1,0.2-0.1,0.3-0.1h0.8c0.1,0,0.2,0,0.3,0.1c0.1,0.1,0.1,0.2,0.1,0.3c0,1,0.6,1.4,1.9,1.4s1.9-0.5,1.9-1.4
	c0-0.1,0-0.2,0.1-0.3c0.1-0.1,0.2-0.1,0.3-0.1h0.8c0.1,0,0.2,0,0.3,0.1c0.1,0.1,0.1,0.2,0.1,0.3c0,0.8-0.3,1.5-0.8,2
	c-0.6,0.5-1.5,0.8-2.7,0.8C133.3,66.9,132.3,66.6,131.8,66.1z"/>
<path class="st1" d="M10,9.7v5.6c0,0.4,0.3,0.7,0.7,0.7h43.6c0.4,0,0.7,0.3,0.7,0.7v70.6c0,0.4-0.3,0.7-0.7,0.7H17.7
	c-0.4,0-0.7-0.3-0.7-0.7V20.7c0-0.4-0.3-0.7-0.7-0.7h-5.6c-0.4,0-0.7,0.3-0.7,0.7v73.6c0,0.4,0.3,0.7,0.7,0.7h50.6
	c0.4,0,0.7-0.3,0.7-0.7V9.7C62,9.3,61.7,9,61.3,9H10.7C10.3,9,10,9.3,10,9.7z"/>
<path class="st1" d="M21.8,20h3.9c0.2,0,0.4,0.1,0.6,0.2l9.2,9.2c0.3,0.3,0.8,0.3,1.1,0l9.2-9.2c0.2-0.2,0.4-0.2,0.6-0.2h3.9
	c0.4,0,0.8,0.4,0.8,0.8v3.9c0,0.2-0.1,0.4-0.2,0.6l-9.2,9.2c-0.3,0.3-0.3,0.8,0,1.1l9.2,9.2c0.2,0.2,0.2,0.4,0.2,0.6v3.9
	c0,0.4-0.4,0.8-0.8,0.8h-3.9c-0.2,0-0.4-0.1-0.6-0.2L21.2,25.2c-0.2-0.2-0.2-0.4-0.2-0.6v-3.9C21,20.4,21.4,20,21.8,20z"/>
<path class="st1" d="M21,45.3v4c0,0.4,0.3,0.7,0.7,0.7h4c0.2,0,0.4-0.1,0.5-0.2l6.9-6.9c0.3-0.3,0.3-0.7,0-1l-4-4
	c-0.3-0.3-0.7-0.3-1,0l-6.9,6.9C21.1,44.9,21,45.1,21,45.3z"/>
<path class="st1" d="M40.4,69.6l-3.9,3.9c-0.3,0.3-0.8,0.3-1.1,0l-7-7c-0.2-0.2-0.5-0.1-0.5,0.2v16.5c0,0.4-0.4,0.8-0.8,0.8h-5.4
	c-0.4,0-0.8-0.4-0.8-0.8V54.8c0-0.4,0.4-0.8,0.8-0.8h3.9c0.2,0,0.4,0.1,0.6,0.2l14.2,14.2C40.7,68.7,40.7,69.3,40.4,69.6z"/>
<path class="st1" d="M45.8,54.2L39,61c-0.3,0.3-0.3,0.8,0,1.1l3.9,3.9c0.3,0.3,0.8,0.3,1.1,0l0,0v0.6v16.6c0,0.4,0.4,0.8,0.8,0.8
	h5.4c0.4,0,0.8-0.4,0.8-0.8V54.8c0-0.4-0.4-0.8-0.8-0.8h-3.9C46.1,54,45.9,54.1,45.8,54.2z"/>
</svg>
