<?xml version="1.0" encoding="utf-8"?>
<!-- Generator: Adobe Illustrator 19.2.1, SVG Export Plug-In . SVG Version: 6.00 Build 0)  -->
<svg version="1.2" baseProfile="tiny" id="Слой_1"
	 xmlns="http://www.w3.org/2000/svg" xmlns:xlink="http://www.w3.org/1999/xlink" x="0px" y="0px" viewBox="0 0 90 600"
	 overflow="scroll" xml:space="preserve">
<g display="none">
	<path display="inline" fill="#262626" d="M-5.8,582.2c0,3.6,1.4,7.5,4.4,11.7l-11.9,4.9c-1.7-2.6-3.1-5.2-4-8
		c-1-2.7-1.4-5.8-1.4-9.2c0-8.8,3.5-15.7,10.6-20.6s17.1-7.3,30-7.3s23,2.5,30.3,7.4c7.3,4.9,10.9,11.8,10.9,20.8
		c0,6.2-1.3,11.1-3.9,14.9H46c2.7-4.5,4-9.2,4-13.8c0-8.4-7.4-13.1-22.1-14v21H15.1v-20.7C1.2,570.3-5.8,574.6-5.8,582.2z"/>
	<path display="inline" fill="#262626" d="M61.9,490.4V507l-40.3,20.5h40.3v14.7h-79.6v-14.7h38.6l-38.6-20.9v-15.8l38.4,21.8
		L61.9,490.4z"/>
	<path display="inline" fill="#262626" d="M-5.8,457.9c0,4.2,2.5,7.6,7.5,10.1c4.9,2.5,11.9,3.7,20.8,3.7c18.4,0,27.7-4.8,27.7-14.4
		c0-4.2-1.3-8.6-4-13.3h13.2c2.6,3.9,3.9,8.8,3.9,14.9c0,8.9-3.6,15.8-10.7,20.7s-17.2,7.2-30.1,7.2s-23-2.5-30.2-7.4
		s-10.8-11.8-10.8-20.7c0-2.9,0.4-5.7,1.2-8.3c0.8-2.7,2.2-5.6,4.2-8.5l12,4.9c-1.1,1.6-2.2,3.4-3.1,5.2
		C-5.3,453.7-5.8,455.7-5.8,457.9z"/>
	<path display="inline" fill="#262626" d="M61.9,383.5v14.7H-4.6v19.6h66.5v14.8h-79.6v-49.2h79.6V383.5z"/>
	<path display="inline" fill="#262626" d="M22,314.7c13.2,0,23.3,2.5,30.3,7.4c7.1,4.9,10.6,12,10.6,21.2c0,9.3-3.5,16.2-10.6,21.2
		c-7.1,4.9-17.3,7.4-30.5,7.4s-23.2-2.5-30.3-7.4c-7-4.9-10.5-12-10.5-21.4c0-9.2,3.5-16.2,10.6-21.1C-1.2,317.2,8.9,314.7,22,314.7
		z M22,356.8c9,0,15.9-1.1,20.8-3.4c4.7-2.3,7.1-5.7,7.1-10.1c0-8.9-9.3-13.4-27.9-13.4s-27.9,4.4-27.9,13.3c0,4.5,2.4,7.9,7.1,10.2
		C6,355.7,13,356.8,22,356.8z"/>
	<path display="inline" fill="#262626" d="M1.3,261.9c4.9,0,9,1.4,12.2,4.4c3.3,2.9,5.5,7.1,6.6,12.6h0.4c0.7-6,2.7-10.6,6-13.9
		s7.6-4.9,13-4.9c7.3,0,13.1,2.4,17.3,7.1c4.2,4.7,6.3,11.1,6.3,19.2c0,8.5-1.2,15.2-3.8,20.1h-13c3-5.3,4.4-11.1,4.4-17.2
		c0-9.5-4.1-14.3-12.4-14.3c-3.8,0-6.7,1.3-8.6,4.1c-2,2.8-3,6.8-3,12.1v5.3h-12v-4.9c0-5.2-0.9-9.2-2.8-11.6
		c-1.9-2.5-4.6-3.8-8.5-3.8c-3.1,0-5.5,0.8-7.1,2.5c-1.6,1.6-2.5,4.1-2.5,7.2c0,4.8,2,9.4,5.9,13.7l-9.9,7
		c-3.1-3.6-5.2-7.2-6.6-10.9s-2-7.8-2-12.3c0-6.6,1.9-11.8,5.5-15.7C-9.6,263.8-4.8,261.9,1.3,261.9z"/>
	<path display="inline" fill="#262626" d="M-17.7,249.1v-13.7H26c4.5,0,9,0.3,13.5,1v-0.6l-57.2-24.2v-18.2h79.6V207H18.3
		c-5.3,0-13.1,0-13.1,0h0.1l56.6,23.9v18.3L-17.7,249.1L-17.7,249.1z"/>
	<path display="inline" fill="#262626" d="M49.5,130.3v-9h35.3v14.4H61.9v43.8h-79.6v-14.8h66.5v-19.5h-66.5v-14.8L49.5,130.3
		L49.5,130.3z"/>
	<path display="inline" fill="#262626" d="M-17.7,112.5V98.8H26c4.5,0,9,0.3,13.5,1v-0.6l-57.2-24.3V56.7h79.6v13.6H18.3
		c-5.3,0-13.2-0.1-13.2-0.1l0,0l56.7,23.9v18.3L-17.7,112.5L-17.7,112.5z"/>
	<path display="inline" fill="#262626" d="M31,21.2l31,12.3v15.9L27.2,34.3C25,37.8,22.3,40.4,19,42c-3.3,1.6-7.4,2.4-12.1,2.4
		c-16.2,0-24.4-8.1-24.4-24.3V1H62v14.8H31V21.2z M-4.8,15.8v3.6c0,3.4,0.8,5.9,2.6,7.5c1.7,1.6,4.6,2.5,8.6,2.5
		c3.9,0,6.9-0.7,8.8-2.2c2-1.4,3-4,3-7.5v-3.8L-4.8,15.8C-4.8,15.9-4.8,15.8-4.8,15.8z"/>
</g>
<g>
	<path fill="#262626" d="M48.1,548.1c14.4,0,24.8,1.7,31.3,5.2c6.4,3.5,9.6,9.1,9.6,16.8c0,7.7-3.2,13.2-9.7,16.6
		c-6.5,3.4-16.9,5-31.2,5c-14.4,0-24.8-1.8-31.3-5.3c-6.5-3.5-9.8-9-9.8-16.6c0-7.7,3.2-13.2,9.5-16.6
		C22.9,549.8,33.4,548.1,48.1,548.1z M48.1,576.9c11.2,0,18.7-0.5,22.5-1.4c3.9-1,5.8-2.8,5.8-5.5c0-1.8-0.8-3.2-2.5-4.2
		c-1.7-1-4.4-1.7-8.3-2.2c-3.9-0.4-9.7-0.7-17.5-0.7c-11,0-18.5,0.5-22.5,1.5c-4,1-6,2.9-6,5.5c0,2.7,2,4.5,6,5.5
		C29.6,576.4,37.1,576.9,48.1,576.9z"/>
	<path fill="#262626" d="M71.2,494v8.1h16.7v14H71.2v26h-12L8.2,518v-15.9h50.7V494H71.2z M58.9,516.1H42.1l-7.4-0.3l-7.1-0.4v0.4
		c4,1.3,7.5,2.7,10.7,4.1l20.5,9.6V516.1z"/>
	<path fill="#262626" d="M7.2,466.5c0-6.2,1.8-11.2,5.3-14.9c3.5-3.7,8.3-5.6,14.4-5.6c3.7,0,7.1,0.9,10.2,2.6
		c3,1.7,5.9,4.7,8.7,8.8c3.3-4.6,6.7-8,10.2-9.9c3.5-2,7.3-2.9,11.4-2.9c6.5,0,11.8,2,15.7,6c4,4,6,9.3,6,15.9
		c0,6.9-1.8,12.2-5.5,16.1c-3.7,3.9-8.9,5.8-15.8,5.8c-4.6,0-8.6-1-12.1-2.9c-3.5-1.9-6.6-4.9-9.2-9c-3,3.8-6.1,6.5-9.1,8.1
		c-3.1,1.6-6.5,2.4-10.4,2.4c-6,0-10.7-1.9-14.3-5.7C9,477.5,7.2,472.6,7.2,466.5z M18.7,466.6c0,2.1,0.8,3.6,2.3,4.7
		c1.5,1.1,3.7,1.6,6.5,1.6c2.4,0,4.5-0.4,6.3-1.3c1.8-0.9,3.7-2.6,5.7-5.1c-1.9-2.4-3.7-4-5.6-4.9c-1.9-0.9-4-1.3-6.4-1.3
		C21.6,460.3,18.7,462.4,18.7,466.6z M66.9,474.4c3.2,0,5.7-0.7,7.6-2c1.9-1.3,2.8-3.2,2.8-5.7c0-2.7-0.9-4.7-2.8-6
		c-1.9-1.3-4.4-2-7.6-2c-2.3,0-4.5,0.5-6.5,1.6s-4.4,3.1-7,6.1l-0.8,0.8c1.7,2.4,3.7,4.2,6,5.4C60.9,473.8,63.6,474.4,66.9,474.4z"
		/>
	<path fill="#262626" d="M87.9,403.4L21.5,381v27.8H8.4v-42.7h10l69.5,22V403.4z"/>
	<path fill="#262626" d="M87.9,314.8v42.7H76.8l-20.1-14.2c-5.5-3.9-9.6-6.6-12.3-8c-2.7-1.5-5.2-2.5-7.7-3.2c-2.5-0.7-5-1-7.6-1
		c-3.1,0-5.3,0.7-6.9,2c-1.5,1.4-2.3,3.1-2.3,5.3c0,1.9,0.5,3.7,1.5,5.4c1,1.7,2.9,3.7,5.5,6.1l-8.7,8.3c-4.3-3.8-7.3-7.4-8.9-10.6
		s-2.4-6.8-2.4-10.6c0-6.4,1.9-11.5,5.7-15.1c3.8-3.6,9-5.4,15.7-5.4c3.1,0,5.9,0.3,8.7,1c2.7,0.7,5.5,1.6,8.2,3
		c2.7,1.3,5.6,3,8.6,5c3,2,9.7,7.2,20.4,15.5h0.4v-26.1H87.9z"/>
	<path fill="#262626" d="M26.2,264.7c5,0,9.2,1.2,12.6,3.7c3.4,2.5,5.7,6,7.1,10.5h0.4c0.8-5,2.8-8.9,5.9-11.6
		c3.1-2.7,7.4-4.1,12.8-4.1c7.3,0,13.2,2.3,17.5,6.8c4.4,4.6,6.5,10.8,6.5,18.7c0,7-1.3,13-3.8,17.8H71.9c1.5-2.4,2.6-5,3.4-7.8
		c0.8-2.8,1.3-5.5,1.3-8.1c0-4.2-1-7.4-2.9-9.5c-1.9-2.1-5-3.2-9.2-3.2c-8,0-11.9,4.9-11.9,14.7v4.5H41.5v-4.3c0-4.3-1-7.6-3.1-9.9
		c-2-2.3-5.1-3.5-9.1-3.5c-3.2,0-5.5,0.7-7.2,2.2c-1.6,1.5-2.4,3.6-2.4,6.2c0,4.1,1.7,8.1,5.2,12l-9.8,6.7
		c-5.4-5.4-8.1-12.2-8.1-20.3c0-6.7,1.7-12,5.1-15.7C15.6,266.6,20.2,264.7,26.2,264.7z"/>
	<path fill="#262626" d="M87.9,220.8l-66.4-22.3v27.8H8.4v-42.7h10l69.5,22V220.8z"/>
	<path fill="#262626" d="M87.9,132.2v42.7H76.8l-20.1-14.2c-5.5-3.9-9.6-6.6-12.3-8c-2.7-1.5-5.2-2.5-7.7-3.2c-2.5-0.7-5-1-7.6-1
		c-3.1,0-5.3,0.7-6.9,2c-1.5,1.4-2.3,3.1-2.3,5.3c0,1.9,0.5,3.7,1.5,5.4c1,1.7,2.9,3.7,5.5,6.1l-8.7,8.3c-4.3-3.8-7.3-7.4-8.9-10.6
		s-2.4-6.8-2.4-10.6c0-6.4,1.9-11.5,5.7-15.1c3.8-3.6,9-5.4,15.7-5.4c3.1,0,5.9,0.3,8.7,1c2.7,0.7,5.5,1.6,8.2,3
		c2.7,1.3,5.6,3,8.6,5c3,2,9.7,7.2,20.4,15.5h0.4v-26.1H87.9z"/>
	<path fill="#262626" d="M7.2,73.9c0-6.2,1.8-11.2,5.3-14.9s8.3-5.6,14.4-5.6c3.7,0,7.1,0.9,10.2,2.6c3,1.7,5.9,4.7,8.7,8.8
		c3.3-4.6,6.7-8,10.2-9.9c3.5-2,7.3-2.9,11.4-2.9c6.5,0,11.8,2,15.7,6c4,4,6,9.3,6,15.9c0,6.9-1.8,12.2-5.5,16.1
		c-3.7,3.9-8.9,5.8-15.8,5.8c-4.6,0-8.6-1-12.1-2.9c-3.5-1.9-6.6-4.9-9.2-9c-3,3.8-6.1,6.5-9.1,8.1c-3.1,1.6-6.5,2.4-10.4,2.4
		c-6,0-10.7-1.9-14.3-5.7C9,84.8,7.2,79.9,7.2,73.9z M18.7,74c0,2.1,0.8,3.6,2.3,4.7c1.5,1.1,3.7,1.6,6.5,1.6c2.4,0,4.5-0.4,6.3-1.3
		c1.8-0.9,3.7-2.6,5.7-5.1c-1.9-2.4-3.7-4-5.6-4.9c-1.9-0.9-4-1.3-6.4-1.3C21.6,67.6,18.7,69.7,18.7,74z M66.9,81.8
		c3.2,0,5.7-0.7,7.6-2c1.9-1.3,2.8-3.2,2.8-5.7c0-2.7-0.9-4.7-2.8-6c-1.9-1.3-4.4-2-7.6-2c-2.3,0-4.5,0.5-6.5,1.6
		c-2,1.1-4.4,3.1-7,6.1l-0.8,0.8c1.7,2.4,3.7,4.2,6,5.4C60.9,81.1,63.6,81.8,66.9,81.8z"/>
	<path fill="#262626" d="M87.9,38.3L21.5,15.9v27.8H8.4V1h10l69.5,22V38.3z"/>
</g>
</svg>
