<?xml version="1.0" encoding="utf-8"?>
<!-- Generator: Adobe Illustrator 19.2.1, SVG Export Plug-In . SVG Version: 6.00 Build 0)  -->
<svg version="1.2" baseProfile="tiny" id="Слой_1"
	 xmlns="http://www.w3.org/2000/svg" xmlns:xlink="http://www.w3.org/1999/xlink" x="0px" y="0px" viewBox="0 0 130 600"
	 overflow="scroll" xml:space="preserve">
<g>
	<path fill="#262626" d="M14.2,582.2c0,3.6,1.4,7.5,4.4,11.7l-11.9,4.9c-1.7-2.6-3.1-5.2-4-8c-1-2.7-1.4-5.8-1.4-9.2
		c0-8.8,3.5-15.7,10.6-20.6s17.1-7.3,30-7.3s23,2.5,30.3,7.4c7.3,4.9,10.9,11.8,10.9,20.8c0,6.2-1.3,11.1-3.9,14.9H66
		c2.7-4.5,4-9.2,4-13.8c0-8.4-7.4-13.1-22.1-14V590H35.1v-20.7C21.2,570.3,14.2,574.6,14.2,582.2z"/>
	<path fill="#262626" d="M81.9,490.4v16.6l-40.3,20.5h40.3v14.7H2.3v-14.7h38.6L2.3,506.6v-15.8l38.4,21.8L81.9,490.4z"/>
	<path fill="#262626" d="M14.2,457.9c0,4.2,2.5,7.6,7.5,10.1c4.9,2.5,11.9,3.7,20.8,3.7c18.4,0,27.7-4.8,27.7-14.4
		c0-4.2-1.3-8.6-4-13.3h13.2c2.6,3.9,3.9,8.8,3.9,14.9c0,8.9-3.6,15.8-10.7,20.7s-17.2,7.2-30.1,7.2s-23-2.5-30.2-7.4
		c-7.2-4.9-10.8-11.8-10.8-20.7c0-2.9,0.4-5.7,1.2-8.3c0.8-2.7,2.2-5.6,4.2-8.5l12,4.9c-1.1,1.6-2.2,3.4-3.1,5.2
		C14.7,453.7,14.2,455.7,14.2,457.9z"/>
	<path fill="#262626" d="M81.9,383.5v14.7H15.4v19.6h66.5v14.8H2.3v-49.2H81.9z"/>
	<path fill="#262626" d="M42,314.7c13.2,0,23.3,2.5,30.3,7.4c7.1,4.9,10.6,12,10.6,21.2c0,9.3-3.5,16.2-10.6,21.2
		c-7.1,4.9-17.3,7.4-30.5,7.4c-13.2,0-23.2-2.5-30.3-7.4c-7-4.9-10.5-12-10.5-21.4c0-9.2,3.5-16.2,10.6-21.1
		C18.8,317.2,28.9,314.7,42,314.7z M42,356.8c9,0,15.9-1.1,20.8-3.4c4.7-2.3,7.1-5.7,7.1-10.1c0-8.9-9.3-13.4-27.9-13.4
		s-27.9,4.4-27.9,13.3c0,4.5,2.4,7.9,7.1,10.2C26,355.7,33,356.8,42,356.8z"/>
	<path fill="#262626" d="M21.3,261.9c4.9,0,9,1.4,12.2,4.4c3.3,2.9,5.5,7.1,6.6,12.6h0.4c0.7-6,2.7-10.6,6-13.9
		c3.3-3.3,7.6-4.9,13-4.9c7.3,0,13.1,2.4,17.3,7.1c4.2,4.7,6.3,11.1,6.3,19.2c0,8.5-1.2,15.2-3.8,20.1H66.3c3-5.3,4.4-11.1,4.4-17.2
		c0-9.5-4.1-14.3-12.4-14.3c-3.8,0-6.7,1.3-8.6,4.1c-2,2.8-3,6.8-3,12.1v5.3h-12v-4.9c0-5.2-0.9-9.2-2.8-11.6
		c-1.9-2.5-4.6-3.8-8.5-3.8c-3.1,0-5.5,0.8-7.1,2.5c-1.6,1.6-2.5,4.1-2.5,7.2c0,4.8,2,9.4,5.9,13.7l-9.9,7
		c-3.1-3.6-5.2-7.2-6.6-10.9s-2-7.8-2-12.3c0-6.6,1.9-11.8,5.5-15.7C10.4,263.8,15.2,261.9,21.3,261.9z"/>
	<path fill="#262626" d="M2.3,249.1v-13.7H46c4.5,0,9,0.3,13.5,1v-0.6L2.3,211.6v-18.2h79.6V207H38.3c-5.3,0-13.1,0-13.1,0h0.1
		l56.6,23.9v18.3L2.3,249.1L2.3,249.1z"/>
	<path fill="#262626" d="M69.5,130.3v-9h35.3v14.4H81.9v43.8H2.3v-14.8h66.5v-19.5H2.3v-14.8H69.5z"/>
	<path fill="#262626" d="M2.3,112.5V98.8H46c4.5,0,9,0.3,13.5,1v-0.6L2.3,74.9V56.7h79.6v13.6H38.3c-5.3,0-13.2-0.1-13.2-0.1l0,0
		l56.7,23.9v18.3H2.3V112.5z"/>
	<path fill="#262626" d="M51,21.2l31,12.3v15.9L47.2,34.3c-2.2,3.5-4.9,6.1-8.2,7.7c-3.3,1.6-7.4,2.4-12.1,2.4
		c-16.2,0-24.4-8.1-24.4-24.3V1H82v14.8H51V21.2z M15.2,15.8v3.6c0,3.4,0.8,5.9,2.6,7.5c1.7,1.6,4.6,2.5,8.6,2.5
		c3.9,0,6.9-0.7,8.8-2.2c2-1.4,3-4,3-7.5v-3.8h-23V15.8z"/>
</g>
</svg>
