<?xml version="1.0" encoding="utf-8"?>
<!-- Generator: Adobe Illustrator 19.2.1, SVG Export Plug-In . SVG Version: 6.00 Build 0)  -->
<svg version="1.2" baseProfile="tiny" id="Слой_1"
	 xmlns="http://www.w3.org/2000/svg" xmlns:xlink="http://www.w3.org/1999/xlink" x="0px" y="0px" viewBox="0 0 124 64"
	 xml:space="preserve">
<g>
	<g>
		<g>
			<path fill="#262626" d="M3,61v-2.6c2-0.5,3.5-2.3,3.5-4.4S5,50.1,3,49.6v-2.2c2-0.5,3.5-2.3,3.5-4.4S5,39.1,3,38.6v-2.2
				c2-0.5,3.5-2.3,3.5-4.4S5,28.1,3,27.6v-2.2c2-0.5,3.5-2.3,3.5-4.4S5,17.1,3,16.6v-2.2c2-0.5,3.5-2.3,3.5-4.4C6.5,7.9,5,6.1,3,5.6
				V3h118v58H3z"/>
			<path fill="#262626" d="M120,4v56H4v-0.9c2-0.8,3.5-2.8,3.5-5.1c0-2.3-1.5-4.3-3.5-5.1v-0.8c2-0.8,3.5-2.8,3.5-5.1
				c0-2.3-1.5-4.3-3.5-5.1v-0.8c2-0.8,3.5-2.8,3.5-5.1S6,27.7,4,26.9v-0.8c2-0.8,3.5-2.8,3.5-5.1S6,16.7,4,15.9v-0.8
				c2-0.8,3.5-2.8,3.5-5.1S6,5.7,4,4.9V4H120 M122,2H2v4.5c1.9,0,3.5,1.6,3.5,3.5c0,1.9-1.6,3.5-3.5,3.5v4c1.9,0,3.5,1.6,3.5,3.5
				S3.9,24.5,2,24.5v4c1.9,0,3.5,1.6,3.5,3.5S3.9,35.5,2,35.5v4c1.9,0,3.5,1.6,3.5,3.5c0,1.9-1.6,3.5-3.5,3.5v4
				c1.9,0,3.5,1.6,3.5,3.5c0,1.9-1.6,3.5-3.5,3.5V62h120V2L122,2z"/>
		</g>
	</g>
	<g>
		<line fill="none" stroke="#FFFFFF" stroke-width="2" stroke-miterlimit="10" x1="105" y1="62" x2="105" y2="59"/>
		
			<line fill="none" stroke="#FFFFFF" stroke-width="2" stroke-miterlimit="10" stroke-dasharray="6,6" x1="105" y1="53" x2="105" y2="8"/>
		<line fill="none" stroke="#FFFFFF" stroke-width="2" stroke-miterlimit="10" x1="105" y1="5" x2="105" y2="2"/>
	</g>
	<line fill="#FFFFFF" stroke="#FFFFFF" stroke-width="2" stroke-miterlimit="10" x1="16" y1="52" x2="92" y2="52"/>
	<line fill="#FFFFFF" stroke="#FFFFFF" stroke-width="2" stroke-miterlimit="10" x1="16" y1="12" x2="92" y2="12"/>
</g>
</svg>
